<?xml version="1.0" encoding="UTF-8" standalone="no"?>
<!DOCTYPE svg PUBLIC "-//W3C//DTD SVG 1.1//EN" "http://www.w3.org/Graphics/SVG/1.1/DTD/svg11.dtd">
<svg version="1.1" xmlns="http://www.w3.org/2000/svg" xmlns:xlink="http://www.w3.org/1999/xlink" preserveAspectRatio="xMidYMid meet" viewBox="0 0 135 135" width="135" height="135"><defs><path d="M134.78 73.03L134.5 75.75L134.12 78.44L133.63 81.1L133.04 83.71L132.35 86.29L131.56 88.83L130.67 91.32L129.69 93.76L128.62 96.16L127.46 98.51L126.21 100.8L124.88 103.05L123.47 105.23L121.97 107.35L120.39 109.42L118.74 111.42L117.02 113.35L115.22 115.22L113.35 117.02L111.42 118.74L109.42 120.39L107.35 121.97L105.23 123.47L103.05 124.88L100.8 126.21L98.51 127.46L96.16 128.62L93.76 129.69L91.32 130.67L88.83 131.56L86.29 132.35L83.71 133.04L81.1 133.63L78.44 134.12L75.75 134.5L73.03 134.78L70.28 134.94L67.5 135L64.72 134.94L61.97 134.78L59.25 134.5L56.56 134.12L53.9 133.63L51.29 133.04L48.71 132.35L46.17 131.56L43.68 130.67L41.24 129.69L38.84 128.62L36.49 127.46L34.2 126.21L31.95 124.88L29.77 123.47L27.65 121.97L25.58 120.39L23.58 118.74L21.65 117.02L19.78 115.22L17.98 113.35L16.26 111.42L14.61 109.42L13.03 107.35L11.53 105.23L10.12 103.05L8.79 100.8L7.54 98.51L6.38 96.16L5.31 93.76L4.33 91.32L3.44 88.83L2.65 86.29L1.96 83.71L1.37 81.1L0.88 78.44L0.5 75.75L0.22 73.03L0.06 70.28L0 67.5L0.06 64.72L0.22 61.97L0.5 59.25L0.88 56.56L1.37 53.9L1.96 51.29L2.65 48.71L3.44 46.17L4.33 43.68L5.31 41.24L6.38 38.84L7.54 36.49L8.79 34.2L10.12 31.95L11.53 29.77L13.03 27.65L14.61 25.58L16.26 23.58L17.98 21.65L19.78 19.78L21.65 17.98L23.58 16.26L25.58 14.61L27.65 13.03L29.77 11.53L31.95 10.12L34.2 8.79L36.49 7.54L38.84 6.38L41.24 5.31L43.68 4.33L46.17 3.44L48.71 2.65L51.29 1.96L53.9 1.37L56.56 0.88L59.25 0.5L61.97 0.22L64.72 0.06L67.5 0L70.28 0.06L73.03 0.22L75.75 0.5L78.44 0.88L81.1 1.37L83.71 1.96L86.29 2.65L88.83 3.44L91.32 4.33L93.76 5.31L96.16 6.38L98.51 7.54L100.8 8.79L103.05 10.12L105.23 11.53L107.35 13.03L109.42 14.61L111.42 16.26L113.35 17.98L115.22 19.78L117.02 21.65L118.74 23.58L120.39 25.58L121.97 27.65L123.47 29.77L124.88 31.95L126.21 34.2L127.46 36.49L128.62 38.84L129.69 41.24L130.67 43.68L131.56 46.17L132.35 48.71L133.04 51.29L133.63 53.9L134.12 56.56L134.5 59.25L134.78 61.97L134.94 64.72L135 67.5L134.94 70.28L134.94 70.28L134.78 73.03Z" id="a3B6ma6AqZ"></path><radialGradient id="gradientdeB3UQQHH" gradientUnits="userSpaceOnUse" cx="67.5" cy="67.5" dx="111.94" dy="18.15" r="66.41"><stop style="stop-color: #f6f1fb;stop-opacity: 1" offset="0%"></stop><stop style="stop-color: #9352c8;stop-opacity: 1" offset="100%"></stop></radialGradient><path d="M67.5 37.13L40.65 102.87L13.8 37.13" id="cWgQ5ntU8"></path><path d="" id="ia8uGDCpv"></path><path d="M92.22 102.87L92.22 43.61" id="c3AEcYd3Rj"></path><path d="M123.7 41.76L60.74 41.76" id="c3gaaQrnLD"></path></defs><g><g><g><use xlink:href="#a3B6ma6AqZ" opacity="1" fill="url(#gradientdeB3UQQHH)"></use></g><g><g><use xlink:href="#cWgQ5ntU8" opacity="1" fill-opacity="0" stroke="#240062" stroke-width="15" stroke-opacity="1"></use></g></g><g><g><use xlink:href="#ia8uGDCpv" opacity="1" fill-opacity="0" stroke="#000000" stroke-width="10" stroke-opacity="1"></use></g></g><g><use xlink:href="#c3AEcYd3Rj" opacity="1" fill="#76a4a0" fill-opacity="1"></use><g><use xlink:href="#c3AEcYd3Rj" opacity="1" fill-opacity="0" stroke="#240062" stroke-width="15" stroke-opacity="1"></use></g></g><g><g><use xlink:href="#c3gaaQrnLD" opacity="1" fill-opacity="0" stroke="#240062" stroke-width="15" stroke-opacity="1"></use></g></g></g></g></svg>